<?xml version="1.0" standalone="no"?><!DOCTYPE svg PUBLIC "-//W3C//DTD SVG 1.1//EN" "http://www.w3.org/Graphics/SVG/1.1/DTD/svg11.dtd"><svg t="1690363196050" class="icon" viewBox="0 0 1024 1024" version="1.1" xmlns="http://www.w3.org/2000/svg" p-id="1025" xmlns:xlink="http://www.w3.org/1999/xlink" width="200" height="200"><path d="M64.0064 508.9472c2.0672-124.3904 47.7248-234.0416 140.8128-322.0608 91.488-86.5088 201.7472-127.232 327.4432-121.9136 120.7616 5.1072 223.8464 52.544 306.6048 140.576 86.0672 91.552 126.6688 201.6128 121.28 327.0656-5.1712 120.384-52.384 223.2256-140.0576 305.8624-91.6224 86.3616-201.8048 127.1424-327.5072 121.7856-120.6464-5.1456-223.52-52.6464-306.3552-140.448-81.0304-85.8816-120.7168-189.1264-122.2208-310.8672z m402.9376 3.0976c-1.2544 1.3632-2.016 2.24-2.8288 3.0592-24.9536 24.9536-49.92 49.9008-74.88 74.8608-19.0784 19.0784-38.1632 38.1568-57.2096 57.2608-8.7424 8.768-11.8272 19.264-8.8576 31.3088 3.648 14.7904 18.3424 25.0048 33.28 23.7248 8.6464-0.736 15.552-4.4928 21.568-10.5152 43.712-43.7696 87.4624-87.5008 131.2064-131.2384 0.8896-0.8896 1.8112-1.7344 3.8464-3.6864 0.7488 1.3696 1.1456 2.7392 2.0288 3.6224 43.6224 43.7056 87.3152 87.3408 130.9312 131.0592 7.8464 7.8656 16.928 11.6288 28.1664 10.656 15.68-1.3568 29.44-17.6832 28.064-33.344-0.7872-8.96-4.4608-16.1984-10.752-22.4768-42.8032-42.7136-85.5424-85.4976-128.3008-128.256-5.7792-5.7856-5.7856-5.7792-0.0384-11.5264 42.8352-42.8352 85.6512-85.6896 128.5248-128.4864 7.6032-7.5904 11.4048-16.4224 10.3616-27.3024-1.7984-18.7584-20.416-32.0832-38.7904-27.808-7.8592 1.824-13.6384 6.5536-19.136 12.0576-43.0848 43.1808-86.2464 86.2848-129.3184 129.4848-2.0608 2.0672-3.168 2.1312-5.2672 0.0128-21.0368-21.1968-42.1824-42.2848-63.296-63.3984-22.9248-22.9248-45.8304-45.8752-68.7872-68.768-9.8048-9.7792-21.4592-12.8704-34.5216-8.0704-21.7536 7.9936-28.3584 35.9744-10.528 53.632 37.5744 37.2096 74.848 74.7328 112.2624 112.1088 7.2832 7.2896 14.6688 14.5152 22.272 22.0288z" p-id="1026"></path></svg>